<?xml version="1.0" encoding="UTF-8" standalone="no"?><!DOCTYPE svg PUBLIC "-//W3C//DTD SVG 1.1//EN" "http://www.w3.org/Graphics/SVG/1.1/DTD/svg11.dtd"><!-- Generated by graphviz version 2.40.1 (20161225.0304)
 --><!-- Title: NeuralNetwork Pages: 1 --><svg xmlns="http://www.w3.org/2000/svg" xmlns:xlink="http://www.w3.org/1999/xlink" width="572pt" height="502pt" viewBox="0.00 0.00 572.33 501.60">
<g id="graph0" class="graph" transform="scale(1 1) rotate(0) translate(4 497.6)">
<title>NeuralNetwork</title>
<polygon fill="#ffffff" stroke="transparent" points="-4,4 -4,-497.6 568.3295,-497.6 568.3295,4 -4,4"/>
<g id="clust1" class="cluster">
<title>cluster_level1</title>
<polygon fill="none" stroke="#000000" points="254.8295,-408.8 254.8295,-485.6 396.8295,-485.6 396.8295,-408.8 254.8295,-408.8"/>
<text text-anchor="middle" x="325.8295" y="-469" font-family="Times,serif" font-size="14.00" fill="#000000">Inputs</text>
</g>
<g id="clust2" class="cluster">
<title>cluster_level3</title>
<polygon fill="none" stroke="#000000" points="156.8295,-8 156.8295,-84.8 226.8295,-84.8 226.8295,-8 156.8295,-8"/>
<text text-anchor="middle" x="191.8295" y="-68.2" font-family="Times,serif" font-size="14.00" fill="#000000">Outputs</text>
</g>
<g id="clust3" class="cluster">
<title>cluster_level2</title>
<polygon fill="none" stroke="#000000" points="12.8295,-119.6 12.8295,-374 226.8295,-374 226.8295,-119.6 12.8295,-119.6"/>
<text text-anchor="middle" x="119.8295" y="-357.4" font-family="Times,serif" font-size="14.00" fill="#000000">Hidden Layers</text>
</g>
<!-- 1 -->
<g id="node1" class="node">
<title>1</title>
<ellipse fill="none" stroke="#000000" cx="289.8295" cy="-434.8" rx="27" ry="18"/>
<text text-anchor="middle" x="289.8295" y="-430.6" font-family="Times,serif" font-size="14.00" fill="#000000">1</text>
</g>
<!-- 3 -->
<g id="node3" class="node">
<title>3</title>
<ellipse fill="none" stroke="#000000" cx="191.8295" cy="-34" rx="27" ry="18"/>
<text text-anchor="middle" x="191.8295" y="-29.8" font-family="Times,serif" font-size="14.00" fill="#000000">out</text>
</g>
<!-- 1&#45;&gt;3 -->
<g id="edge1" class="edge">
<title>1-&gt;3</title>
<path fill="none" stroke="#000000" d="M304.3959,-419.4615C348.0567,-371.5875 470.6803,-222.0158 401.8295,-119.6 363.1526,-62.0679 278.3325,-43.1822 229.1425,-36.9976"/>
<polygon fill="#000000" stroke="#000000" points="229.2547,-33.4878 218.9223,-35.8311 228.4608,-40.4426 229.2547,-33.4878"/>
<text text-anchor="middle" x="435.5795" y="-230.2" font-family="Times,serif" font-size="14.00" fill="#000000">2.136</text>
</g>
<!-- 4 -->
<g id="node4" class="node">
<title>4</title>
<ellipse fill="none" stroke="#000000" cx="112.8295" cy="-323.2" rx="27" ry="18"/>
<text text-anchor="middle" x="112.8295" y="-319" font-family="Times,serif" font-size="14.00" fill="#000000">4</text>
</g>
<!-- 1&#45;&gt;4 -->
<g id="edge9" class="edge">
<title>1-&gt;4</title>
<path fill="none" stroke="#000000" d="M262.7205,-432.5546C220.8272,-428.5043 143.2365,-418.502 124.6689,-398.8 112.9721,-386.3886 110.0292,-367.414 110.0019,-351.5798"/>
<polygon fill="#000000" stroke="#000000" points="113.5122,-351.3589 110.3772,-341.2386 106.5168,-351.105 113.5122,-351.3589"/>
<text text-anchor="middle" x="142.9098" y="-386.2" font-family="Times,serif" font-size="14.00" fill="#000000">-2.987</text>
</g>
<!-- 5 -->
<g id="node5" class="node">
<title>5</title>
<ellipse fill="none" stroke="#000000" cx="119.8295" cy="-145.6" rx="27" ry="18"/>
<text text-anchor="middle" x="119.8295" y="-141.4" font-family="Times,serif" font-size="14.00" fill="#000000">5</text>
</g>
<!-- 1&#45;&gt;5 -->
<g id="edge12" class="edge">
<title>1-&gt;5</title>
<path fill="none" stroke="#000000" d="M285.0045,-416.8079C273.9444,-377.7247 244.0235,-283.2181 196.8295,-216.4 182.9117,-196.6949 162.7039,-178.3756 146.4819,-165.3101"/>
<polygon fill="#000000" stroke="#000000" points="148.4432,-162.4001 138.4166,-158.977 144.1201,-167.9057 148.4432,-162.4001"/>
<text text-anchor="middle" x="251.5795" y="-274.6" font-family="Times,serif" font-size="14.00" fill="#000000">0.837</text>
</g>
<!-- 6 -->
<g id="node6" class="node">
<title>6</title>
<ellipse fill="none" stroke="#000000" cx="191.8295" cy="-145.6" rx="27" ry="18"/>
<text text-anchor="middle" x="191.8295" y="-141.4" font-family="Times,serif" font-size="14.00" fill="#000000">6</text>
</g>
<!-- 1&#45;&gt;6 -->
<g id="edge15" class="edge">
<title>1-&gt;6</title>
<path fill="none" stroke="#000000" d="M290.7024,-416.5776C293.3316,-360.0944 300.5902,-191.1556 293.8295,-181.6 285.93,-170.4349 253.9965,-160.3203 227.9373,-153.6755"/>
<polygon fill="#000000" stroke="#000000" points="228.4865,-150.2064 217.9402,-151.2185 226.8158,-157.0041 228.4865,-150.2064"/>
<text text-anchor="middle" x="313.9098" y="-274.6" font-family="Times,serif" font-size="14.00" fill="#000000">-4.594</text>
</g>
<!-- 2 -->
<g id="node2" class="node">
<title>2</title>
<ellipse fill="none" stroke="#000000" cx="361.8295" cy="-434.8" rx="27" ry="18"/>
<text text-anchor="middle" x="361.8295" y="-430.6" font-family="Times,serif" font-size="14.00" fill="#000000">2</text>
</g>
<!-- 2&#45;&gt;3 -->
<g id="edge2" class="edge">
<title>2-&gt;3</title>
<path fill="none" stroke="#000000" d="M388.1735,-430.2033C436.1404,-420.1569 532.8295,-391.4422 532.8295,-323.2 532.8295,-323.2 532.8295,-323.2 532.8295,-145.6 532.8295,-82.1506 316.8879,-49.0124 228.6871,-38.1236"/>
<polygon fill="#000000" stroke="#000000" points="228.9344,-34.6281 218.5872,-36.9054 228.0961,-41.5777 228.9344,-34.6281"/>
<text text-anchor="middle" x="548.5795" y="-230.2" font-family="Times,serif" font-size="14.00" fill="#000000">3.868</text>
</g>
<!-- 2&#45;&gt;4 -->
<g id="edge8" class="edge">
<title>2-&gt;4</title>
<path fill="none" stroke="#000000" d="M344.4508,-420.9452C338.7157,-416.7334 332.1761,-412.2986 325.8295,-408.8 265.7301,-375.67 190.1109,-348.38 147.0418,-334.0629"/>
<polygon fill="#000000" stroke="#000000" points="147.9286,-330.6703 137.3357,-330.8734 145.7433,-337.3204 147.9286,-330.6703"/>
<text text-anchor="middle" x="318.5795" y="-386.2" font-family="Times,serif" font-size="14.00" fill="#000000">1.822</text>
</g>
<!-- 2&#45;&gt;5 -->
<g id="edge10" class="edge">
<title>2-&gt;5</title>
<path fill="none" stroke="#000000" d="M363.368,-416.7273C365.1875,-384.4243 364.7327,-315.9094 333.8295,-270.4 322.1812,-253.2461 206.6468,-191.1178 150.3502,-161.5072"/>
<polygon fill="#000000" stroke="#000000" points="151.6874,-158.2563 141.206,-156.7096 148.4352,-164.455 151.6874,-158.2563"/>
<text text-anchor="middle" x="358.5795" y="-274.6" font-family="Times,serif" font-size="14.00" fill="#000000">0.369</text>
</g>
<!-- 2&#45;&gt;6 -->
<g id="edge14" class="edge">
<title>2-&gt;6</title>
<path fill="none" stroke="#000000" d="M388.0173,-429.5051C405.4602,-424.5698 427.3864,-415.3814 439.8295,-398.8 464.3347,-366.145 484.5815,-250.2999 461.8295,-216.4 435.875,-177.7284 296.6781,-157.2147 228.9265,-149.3932"/>
<polygon fill="#000000" stroke="#000000" points="229.0223,-145.8821 218.6945,-148.2461 228.2423,-152.8385 229.0223,-145.8821"/>
<text text-anchor="middle" x="486.5795" y="-274.6" font-family="Times,serif" font-size="14.00" fill="#000000">8.129</text>
</g>
<!-- 4&#45;&gt;3 -->
<g id="edge4" class="edge">
<title>4-&gt;3</title>
<path fill="none" stroke="#000000" d="M95.8484,-309.0909C57.1887,-275.2275 -30.8461,-187.1501 11.8295,-119.6 43.246,-69.8717 112.3029,-48.4419 155.1622,-39.6552"/>
<polygon fill="#000000" stroke="#000000" points="156.0322,-43.0522 165.1937,-37.7308 154.7133,-36.1775 156.0322,-43.0522"/>
<text text-anchor="middle" x="28.0795" y="-185.8" font-family="Times,serif" font-size="14.00" fill="#000000">16.266</text>
</g>
<!-- 4&#45;&gt;5 -->
<g id="edge11" class="edge">
<title>4-&gt;5</title>
<path fill="none" stroke="#000000" d="M113.5392,-305.1934C114.7604,-274.212 117.2674,-210.606 118.7206,-173.7346"/>
<polygon fill="#000000" stroke="#000000" points="122.2213,-173.7844 119.1179,-163.6543 115.2267,-173.5086 122.2213,-173.7844"/>
<text text-anchor="middle" x="130.0795" y="-230.2" font-family="Times,serif" font-size="14.00" fill="#000000">0.13</text>
</g>
<!-- 4&#45;&gt;6 -->
<g id="edge16" class="edge">
<title>4-&gt;6</title>
<path fill="none" stroke="#000000" d="M121.1101,-305.8082C127.8726,-291.5163 137.6193,-270.7146 145.8295,-252.4 158.0042,-225.2419 171.4115,-193.9454 180.5944,-172.2831"/>
<polygon fill="#000000" stroke="#000000" points="183.8245,-173.6311 184.4967,-163.0576 177.3775,-170.904 183.8245,-173.6311"/>
<text text-anchor="middle" x="177.5795" y="-230.2" font-family="Times,serif" font-size="14.00" fill="#000000">3.084</text>
</g>
<!-- 7 -->
<g id="node7" class="node">
<title>7</title>
<ellipse fill="none" stroke="#000000" cx="47.8295" cy="-145.6" rx="27" ry="18"/>
<text text-anchor="middle" x="47.8295" y="-141.4" font-family="Times,serif" font-size="14.00" fill="#000000">7</text>
</g>
<!-- 4&#45;&gt;7 -->
<g id="edge18" class="edge">
<title>4-&gt;7</title>
<path fill="none" stroke="#000000" d="M102.5269,-306.2601C94.3442,-292.2305 83.0825,-271.561 75.6689,-252.4 65.6272,-226.4462 58.019,-195.5667 53.3152,-173.7037"/>
<polygon fill="#000000" stroke="#000000" points="56.7087,-172.8316 51.2414,-163.7564 49.856,-174.2603 56.7087,-172.8316"/>
<text text-anchor="middle" x="93.9098" y="-230.2" font-family="Times,serif" font-size="14.00" fill="#000000">-0.424</text>
</g>
<!-- 5&#45;&gt;3 -->
<g id="edge5" class="edge">
<title>5-&gt;3</title>
<path fill="none" stroke="#000000" d="M130.7648,-128.6504C142.6748,-110.1899 161.8508,-80.467 175.5357,-59.2554"/>
<polygon fill="#000000" stroke="#000000" points="178.547,-61.0439 181.0273,-50.7435 172.6649,-57.249 178.547,-61.0439"/>
<text text-anchor="middle" x="169.5795" y="-97" font-family="Times,serif" font-size="14.00" fill="#000000">2.211</text>
</g>
<!-- 6&#45;&gt;3 -->
<g id="edge6" class="edge">
<title>6-&gt;3</title>
<path fill="none" stroke="#000000" d="M191.8295,-127.1715C191.8295,-109.539 191.8295,-82.6924 191.8295,-62.3391"/>
<polygon fill="#000000" stroke="#000000" points="195.3296,-62.0855 191.8295,-52.0856 188.3296,-62.0856 195.3296,-62.0855"/>
<text text-anchor="middle" x="213.4098" y="-97" font-family="Times,serif" font-size="14.00" fill="#000000">-17.727</text>
</g>
<!-- 7&#45;&gt;3 -->
<g id="edge7" class="edge">
<title>7-&gt;3</title>
<path fill="none" stroke="#000000" stroke-dasharray="1,5" d="M63.8729,-130.786C75.8467,-119.9322 92.7581,-105.0238 108.3295,-92.8 126.3333,-78.6667 147.4128,-63.8352 163.8877,-52.6036"/>
<polygon fill="#000000" stroke="#000000" points="166.1989,-55.2656 172.518,-46.7615 162.2749,-49.4689 166.1989,-55.2656"/>
<text text-anchor="middle" x="124.5795" y="-97" font-family="Times,serif" font-size="14.00" fill="#000000">1.825</text>
</g>
<!-- 0 -->
<g id="node8" class="node">
<title>0</title>
<ellipse fill="none" stroke="#000000" cx="362.8295" cy="-234.4" rx="27" ry="18"/>
<text text-anchor="middle" x="362.8295" y="-230.2" font-family="Times,serif" font-size="14.00" fill="#000000">0</text>
</g>
<!-- 0&#45;&gt;3 -->
<g id="edge3" class="edge">
<title>0-&gt;3</title>
<path fill="none" stroke="#000000" d="M373.0935,-217.6561C378.2477,-206.9797 382.342,-193.0499 376.8295,-181.6 345.0313,-115.5514 267.7024,-69.8757 223.7485,-48.2555"/>
<polygon fill="#000000" stroke="#000000" points="225.1732,-45.0571 214.6433,-43.8864 222.1448,-51.3682 225.1732,-45.0571"/>
<text text-anchor="middle" x="381.5795" y="-141.4" font-family="Times,serif" font-size="14.00" fill="#000000">3.231</text>
</g>
<!-- 0&#45;&gt;5 -->
<g id="edge13" class="edge">
<title>0-&gt;5</title>
<path fill="none" stroke="#000000" d="M340.1009,-224.4862C309.1375,-211.0743 255.2195,-188.0782 234.8295,-181.6 200.5091,-170.6959 189.7327,-175.7393 155.8295,-163.6 153.9546,-162.9287 152.0509,-162.1837 150.1482,-161.3899"/>
<polygon fill="#000000" stroke="#000000" points="151.331,-158.0828 140.7793,-157.1275 148.4322,-164.4544 151.331,-158.0828"/>
<text text-anchor="middle" x="292.9098" y="-185.8" font-family="Times,serif" font-size="14.00" fill="#000000">-0.717</text>
</g>
<!-- 0&#45;&gt;6 -->
<g id="edge17" class="edge">
<title>0-&gt;6</title>
<path fill="none" stroke="#000000" d="M352.543,-217.3074C344.684,-205.6387 332.8381,-190.7009 318.8295,-181.6 291.5147,-163.8545 255.3823,-154.7167 228.6434,-150.0986"/>
<polygon fill="#000000" stroke="#000000" points="228.9604,-146.6051 218.5344,-148.4889 227.8595,-153.518 228.9604,-146.6051"/>
<text text-anchor="middle" x="354.9098" y="-185.8" font-family="Times,serif" font-size="14.00" fill="#000000">-0.458</text>
</g>
</g>
</svg>